<?xml version="1.0" standalone="no"?>
<!DOCTYPE svg PUBLIC "-//W3C//DTD SVG 20010904//EN"
 "http://www.w3.org/TR/2001/REC-SVG-20010904/DTD/svg10.dtd">
<svg version="1.0" xmlns="http://www.w3.org/2000/svg"
 width="163.000000pt" height="163.000000pt" viewBox="0 0 163.000000 163.000000"
 preserveAspectRatio="xMidYMid meet">

<g transform="translate(0.000000,163.000000) scale(0.100000,-0.100000)"
fill="#000000" stroke="none">
<path d="M448 1616 c-16 -8 -24 -21 -26 -46 -3 -33 6 -43 123 -160 69 -69 125
-128 125 -132 0 -5 -35 -8 -77 -9 -236 -1 -412 -130 -477 -348 -22 -77 -23
-450 -1 -536 34 -128 128 -241 255 -303 l75 -37 386 0 385 0 76 38 c126 62
210 159 249 289 19 61 20 88 17 306 l-3 239 -42 85 c-51 101 -124 175 -218
219 -78 37 -145 49 -269 49 l-100 0 67 68 c72 72 83 104 49 135 -36 33 -63 21
-147 -63 -44 -44 -84 -80 -90 -80 -6 0 -75 65 -154 144 -79 80 -152 147 -162
149 -9 3 -28 -1 -41 -7z m687 -475 c123 -18 222 -90 273 -199 27 -57 27 -59
27 -287 l0 -230 -28 -61 c-34 -73 -92 -132 -167 -171 l-55 -28 -355 0 -355 0
-63 34 c-75 41 -125 94 -161 170 -25 54 -26 65 -29 256 -3 164 -1 210 13 262
36 132 148 234 280 253 72 11 549 11 620 1z"/>
<path d="M575 895 c-14 -13 -25 -32 -25 -41 0 -10 21 -124 46 -253 41 -210 49
-239 72 -259 19 -18 32 -22 54 -18 30 6 391 313 402 342 26 69 -5 90 -264 178
-124 42 -233 76 -243 76 -10 0 -29 -11 -42 -25z"/>
</g>
</svg>
